<svg width="64" height="64" viewBox="0 0 64 64" fill="none" xmlns="http://www.w3.org/2000/svg">
<path fill-rule="evenodd" clip-rule="evenodd" d="M13.7926 32.0002C13.7926 29.9217 14.1376 27.9287 14.7541 26.0597L3.96911 17.8242C1.86711 22.0917 0.683105 26.9007 0.683105 32.0002C0.683105 37.0957 1.86611 41.9012 3.96461 46.1662L14.7436 37.9147C14.1331 36.0542 13.7926 34.0687 13.7926 32.0002Z" fill="#FBBC05"/>
<path fill-rule="evenodd" clip-rule="evenodd" d="M32.7285 13.091C37.244 13.091 41.3225 14.691 44.527 17.309L53.849 8C48.1685 3.0545 40.8855 0 32.7285 0C20.0645 0 9.18049 7.242 3.96899 17.824L14.7535 26.0595C17.2385 18.5165 24.322 13.091 32.7285 13.091Z" fill="#EA4335"/>
<path fill-rule="evenodd" clip-rule="evenodd" d="M32.7285 50.9089C24.3225 50.9089 17.239 45.4834 14.754 37.9404L3.96899 46.1744C9.18049 56.7579 20.0645 63.9999 32.7285 63.9999C40.5445 63.9999 48.007 61.2244 53.6075 56.0244L43.3705 48.1104C40.482 49.9299 36.8445 50.9089 32.7285 50.9089Z" fill="#34A853"/>
<path fill-rule="evenodd" clip-rule="evenodd" d="M63.317 32.0001C63.317 30.1091 63.0255 28.0726 62.5885 26.1821H32.7285V38.5456H49.9165C49.057 42.7611 46.718 46.0016 43.3705 48.1106L53.6075 56.0246C59.4905 50.5646 63.317 42.4306 63.317 32.0001Z" fill="#4285F4"/>
</svg>
