<svg width="156" height="37" viewBox="0 0 156 37" fill="none" xmlns="http://www.w3.org/2000/svg">
<path d="M49.3538 29.1431C48.7321 29.2163 48.2109 29.2528 47.7904 29.2528C46.6018 29.2528 45.6784 28.8597 45.0201 28.0734C44.3619 27.2689 44.0327 26.0712 44.0327 24.4804V9.55951C44.0327 9.41323 44.1059 9.34009 44.2521 9.34009H45.2395C45.4041 9.34009 45.4864 9.41323 45.4864 9.55951V24.5627C45.4864 25.7329 45.6875 26.5832 46.0898 27.1135C46.5104 27.6437 47.1138 27.9089 47.9001 27.9089C48.1926 27.9089 48.6681 27.8723 49.3263 27.7992C49.4726 27.7992 49.5458 27.8723 49.5458 28.0186V28.8689C49.5458 29.0334 49.4818 29.1249 49.3538 29.1431Z" fill="#101935"/>
<path d="M62.2321 22.4233C62.2321 22.5695 62.1498 22.6427 61.9852 22.6427H52.5226V24.1787C52.5226 25.3306 52.9157 26.2449 53.702 26.9215C54.4882 27.598 55.4756 27.9363 56.6642 27.9363C57.5967 27.9363 58.4196 27.7809 59.1327 27.47C59.8641 27.1409 60.5315 26.7112 61.135 26.1809C61.2812 26.0895 61.391 26.1078 61.4641 26.2358L61.9578 26.8666C62.0675 26.9763 62.0584 27.086 61.9304 27.1957C60.3578 28.5671 58.5933 29.2528 56.6368 29.2528C55.6494 29.2528 54.7259 29.0517 53.8665 28.6494C53.0071 28.2472 52.3214 27.662 51.8094 26.894C51.2974 26.1261 51.0414 25.2209 51.0414 24.1787V19.845C51.0414 18.1445 51.5717 16.8371 52.6323 15.9228C53.6928 14.9903 55.0368 14.524 56.6642 14.524C58.2916 14.524 59.6264 14.9903 60.6687 15.9228C61.711 16.8371 62.2321 18.1445 62.2321 19.845V22.4233ZM60.8058 19.845C60.8058 18.5833 60.4218 17.6051 59.6538 16.9102C58.9041 16.2154 57.9076 15.868 56.6642 15.868C55.3842 15.868 54.3694 16.2154 53.6197 16.9102C52.8883 17.5868 52.5226 18.5651 52.5226 19.845V21.4084H60.8058V19.845Z" fill="#101935"/>
<path d="M65.3505 15.9502C65.9722 15.5114 66.7128 15.164 67.5722 14.908C68.4499 14.652 69.3824 14.524 70.3699 14.524C72.0704 14.524 73.3687 14.972 74.2646 15.868C75.1606 16.7639 75.6086 18.0439 75.6086 19.7079V28.046C75.6086 28.174 75.5446 28.2654 75.4166 28.3203C74.7218 28.5763 73.9264 28.7957 73.0304 28.9786C72.1527 29.1614 71.2476 29.2528 70.315 29.2528C68.651 29.2528 67.2705 28.8689 66.1734 28.1009C65.0945 27.3329 64.5551 26.2358 64.5551 24.8095C64.5551 23.4198 65.0671 22.3501 66.0911 21.6004C67.1151 20.8507 68.523 20.4759 70.315 20.4759C71.2841 20.4759 72.5641 20.6222 74.1549 20.9147V19.7353C74.1549 18.4736 73.8441 17.5136 73.2224 16.8554C72.619 16.1971 71.6498 15.868 70.315 15.868C69.5287 15.868 68.7607 15.9777 68.011 16.1971C67.2796 16.3982 66.6488 16.6634 66.1185 16.9925C66.0088 17.0839 65.9082 17.0657 65.8168 16.9377L65.3505 16.2245C65.2591 16.0965 65.2591 16.0051 65.3505 15.9502ZM66.0362 24.8095C66.0362 25.7786 66.4294 26.5466 67.2156 27.1135C68.0019 27.662 69.035 27.9363 70.315 27.9363C71.595 27.9363 72.875 27.7169 74.1549 27.278V22.1764C72.8932 21.9021 71.6133 21.765 70.315 21.765C68.907 21.765 67.8373 22.0301 67.1059 22.5604C66.3928 23.0724 66.0362 23.8221 66.0362 24.8095Z" fill="#101935"/>
<path d="M88.7154 9.55951C88.7154 9.41323 88.7885 9.34009 88.9348 9.34009H89.9222C90.0868 9.34009 90.169 9.41323 90.169 9.55951V28.0186C90.169 28.1649 90.1051 28.2472 89.9771 28.2654C89.2091 28.5763 88.3771 28.814 87.4811 28.9786C86.6034 29.1614 85.7348 29.2528 84.8754 29.2528C83.0103 29.2528 81.5475 28.7683 80.4869 27.7992C79.4447 26.8118 78.9235 25.3306 78.9235 23.3558V20.3936C78.9235 18.4919 79.4447 17.0382 80.4869 16.0325C81.5292 15.0268 82.9555 14.524 84.7657 14.524C86.1737 14.524 87.4902 14.8897 88.7154 15.6211V9.55951ZM80.4047 23.3558C80.4047 24.9466 80.7887 26.1078 81.5566 26.8392C82.3246 27.5706 83.44 27.9363 84.9029 27.9363C86.2743 27.9363 87.5451 27.726 88.7154 27.3055V17.0199C87.5451 16.2337 86.2651 15.8405 84.8754 15.8405C81.8949 15.8405 80.4047 17.3582 80.4047 20.3936V23.3558Z" fill="#101935"/>
<path d="M97.0016 23.9867C97.0016 24.7364 97.1845 25.3215 97.5502 25.7421C97.9342 26.1626 98.4736 26.3729 99.1685 26.3729L100.293 26.318C100.586 26.318 100.732 26.446 100.732 26.702V28.7866C100.732 29.0609 100.604 29.2071 100.348 29.2254C99.7262 29.262 99.2416 29.2803 98.8942 29.2803C97.3765 29.2803 96.1514 28.8689 95.2188 28.046C94.2863 27.2049 93.82 25.9249 93.82 24.2061V11.6715C93.82 11.4155 93.9571 11.2875 94.2314 11.2875H96.3159C96.4256 11.2875 96.5171 11.324 96.5902 11.3972C96.6634 11.452 96.7091 11.5343 96.7274 11.644L96.9742 14.9354H99.909C100.183 14.9354 100.32 15.0634 100.32 15.3194V17.3217C100.32 17.5776 100.183 17.7056 99.909 17.7056H97.0016V23.9867Z" fill="#101935"/>
<path d="M129.267 29.198C128.791 29.2528 128.27 29.2803 127.703 29.2803C126.241 29.2803 125.107 28.814 124.302 27.8814C123.516 26.9489 123.123 25.6415 123.123 23.9592V9.75151C123.123 9.47723 123.26 9.34009 123.534 9.34009H125.893C126.168 9.34009 126.305 9.47723 126.305 9.75151V23.8495C126.305 24.7455 126.451 25.3946 126.743 25.7969C127.036 26.1809 127.493 26.3729 128.115 26.3729C128.334 26.3729 128.682 26.3546 129.157 26.318C129.431 26.318 129.569 26.4552 129.569 26.7295V28.7591C129.569 29.0334 129.468 29.1797 129.267 29.198Z" fill="#101935"/>
<path d="M143.55 23.7398C143.55 25.4404 142.983 26.7935 141.849 27.7992C140.715 28.7866 139.198 29.2803 137.296 29.2803C135.394 29.2803 133.877 28.7866 132.743 27.7992C131.609 26.7935 131.042 25.4404 131.042 23.7398V20.0645C131.042 18.3456 131.609 16.9742 132.743 15.9502C133.877 14.9263 135.394 14.4143 137.296 14.4143C139.198 14.4143 140.715 14.9263 141.849 15.9502C142.983 16.9742 143.55 18.3456 143.55 20.0645V23.7398ZM134.252 23.7398C134.252 24.6175 134.507 25.2849 135.019 25.7421C135.55 26.1992 136.309 26.4278 137.296 26.4278C138.283 26.4278 139.033 26.1992 139.545 25.7421C140.075 25.2849 140.341 24.6175 140.341 23.7398V20.0645C140.341 19.1685 140.075 18.4828 139.545 18.0074C139.015 17.5136 138.265 17.2668 137.296 17.2668C136.309 17.2668 135.55 17.5045 135.019 17.9799C134.507 18.4553 134.252 19.1502 134.252 20.0645V23.7398Z" fill="#101935"/>
<path d="M146.919 28.9511C146.645 28.9511 146.508 28.814 146.508 28.5397V15.9228C146.508 15.6851 146.608 15.5297 146.809 15.4565C147.504 15.1091 148.263 14.8531 149.086 14.6886C149.927 14.5057 150.768 14.4143 151.609 14.4143C152.542 14.4143 153.475 14.4874 154.407 14.6337C154.645 14.652 154.764 14.7891 154.764 15.0451V17.0199C154.764 17.1479 154.718 17.2394 154.626 17.2942C154.553 17.3491 154.453 17.3674 154.325 17.3491C153.868 17.2759 153.127 17.2394 152.103 17.2394C151.097 17.2394 150.293 17.3674 149.689 17.6234V28.5397C149.689 28.814 149.552 28.9511 149.278 28.9511H146.919Z" fill="#101935"/>
<path d="M102.926 15.868C104.334 14.8989 106.126 14.4143 108.302 14.4143C110.076 14.4143 111.465 14.8806 112.471 15.8131C113.495 16.7274 114.007 18.1171 114.007 19.9822V27.9912C114.007 28.2106 113.906 28.366 113.705 28.4575C112.937 28.6952 112.059 28.8872 111.072 29.0335C110.103 29.198 109.143 29.2803 108.192 29.2803C106.418 29.2803 104.956 28.9146 103.804 28.1832C102.652 27.4518 102.076 26.2906 102.076 24.6998C102.076 23.2553 102.615 22.1673 103.694 21.4359C104.791 20.6862 106.254 20.3113 108.082 20.3113C108.814 20.3113 109.728 20.3845 110.825 20.5308V20.0096C110.825 19.0222 110.615 18.3182 110.194 17.8977C109.792 17.4588 109.088 17.2394 108.082 17.2394C107.424 17.2394 106.784 17.3217 106.162 17.4862C105.559 17.6325 105.029 17.8428 104.572 18.1171C104.48 18.1719 104.398 18.1994 104.325 18.1994C104.197 18.1994 104.096 18.1354 104.023 18.0074L102.926 16.3343C102.798 16.1331 102.798 15.9777 102.926 15.868ZM105.285 24.6724C105.285 25.2941 105.55 25.7604 106.08 26.0712C106.61 26.3638 107.314 26.5101 108.192 26.5101C109.033 26.5101 109.911 26.4004 110.825 26.1809V23.0816C109.838 22.9353 108.951 22.8621 108.165 22.8621C106.245 22.8621 105.285 23.4656 105.285 24.6724Z" fill="#00C6C6"/>
<path d="M121.002 26.4926L119.831 15.5243C119.824 15.4474 119.773 15.3816 119.699 15.356C119.194 15.1657 118.865 15.1365 118.708 15.1365C118.638 15.1365 118.569 15.1365 118.496 15.1365C118.338 15.1365 118.009 15.1621 117.504 15.356C117.431 15.3816 117.38 15.4474 117.373 15.5243L116.202 26.4926C116.194 26.5511 116.213 26.606 116.249 26.6499L118.444 29.1962C118.525 29.2914 118.675 29.2914 118.755 29.1962L120.951 26.6499C120.987 26.606 121.005 26.5475 120.998 26.4926H121.002Z" fill="#00C6C6"/>
<path d="M117.299 13.011C117.321 13.1427 117.464 13.2159 117.585 13.161C117.965 12.9964 118.763 12.7549 119.601 13.1537C119.721 13.2122 119.86 13.139 119.89 13.011L120.277 11.1964C120.299 11.1012 120.248 11.0025 120.157 10.9622C119.718 10.7793 118.426 10.3439 117.091 10.9622C117.007 11.0025 116.959 11.0939 116.974 11.1854L117.303 13.0073L117.299 13.011Z" fill="#00C6C6"/>
<path fill-rule="evenodd" clip-rule="evenodd" d="M34.7151 10.5977C36.7265 9.73366 38.3292 10.4281 38.3664 12.2956C38.4569 16.7156 38.4593 21.1404 38.3664 25.5627C38.3245 27.551 36.7219 28.2292 34.6361 27.2746C33.5692 26.7864 32.5173 26.2731 31.4662 25.7603C31.2771 25.6681 31.088 25.5758 30.8989 25.4838V26.6451C30.8989 28.7959 29.2127 30.4868 27.0642 30.4868C23.0088 30.4891 18.9511 30.4891 14.8956 30.4868C14.7633 30.4868 14.6587 30.5193 14.5496 30.596C12.7762 31.8614 11.0028 33.1247 9.22943 34.388C8.34334 35.0192 7.45725 35.6504 6.57116 36.2819C5.95332 36.7209 5.15664 36.491 4.92437 35.8058C4.87095 35.6501 4.86631 35.4876 4.86631 35.325V30.7075V30.4868C4.4761 30.4915 4.11608 30.4822 3.76071 30.4055C1.98386 30.02 0.741224 28.4986 0.738902 26.6567C0.729611 21.5793 0.729611 16.502 0.738902 11.4246C0.743547 9.45726 2.14645 7.88945 4.09286 7.62931C4.24615 7.60841 4.40642 7.60376 4.56204 7.60376H27.0642C29.2103 7.60608 30.8989 9.29467 30.8989 11.4455V12.4442C32.1276 11.7707 33.4097 11.1598 34.7151 10.5977ZM13.7978 17.2745C11.5958 14.0793 15.0735 10.1005 18.6284 11.9438L18.635 11.9473L18.6415 11.9509C21.9895 13.8257 20.373 18.8992 16.6818 18.659C15.2601 18.5665 14.1339 19.2494 13.3446 20.1775C12.567 21.0919 12.1683 22.1851 12.1444 22.8696C12.8592 23.0779 13.3814 23.738 13.3814 24.52C13.3814 25.4692 12.6119 26.2387 11.6626 26.2387C10.7134 26.2387 9.94383 25.4692 9.94383 24.52C9.94383 23.7255 10.4829 23.0569 11.2152 22.86C11.2408 21.918 11.7492 20.6194 12.6369 19.5756C13.5612 18.4887 14.9516 17.6154 16.7422 17.7319C19.4731 17.9096 20.6442 14.145 18.194 12.7652C15.4801 11.365 12.9244 14.3699 14.5628 16.7473L13.7978 17.2745ZM21.3526 22.8566C20.6138 23.0491 20.0684 23.7208 20.0684 24.52C20.0684 25.4692 20.8379 26.2387 21.7872 26.2387C22.7364 26.2387 23.506 25.4692 23.506 24.52C23.506 23.7442 22.9921 23.0885 22.2861 22.8747C22.1673 20.9226 20.7959 19.4099 19.2787 18.4987L18.8003 19.2952C20.1558 20.1092 21.2259 21.3543 21.3526 22.8566ZM20.9975 24.52C20.9975 24.0838 21.351 23.7302 21.7872 23.7302C22.2233 23.7302 22.5769 24.0838 22.5769 24.52C22.5769 24.9561 22.2233 25.3097 21.7872 25.3097C21.351 25.3097 20.9975 24.9561 20.9975 24.52ZM11.6626 23.7302C11.2265 23.7302 10.8729 24.0838 10.8729 24.52C10.8729 24.9561 11.2265 25.3097 11.6626 25.3097C12.0988 25.3097 12.4523 24.9561 12.4523 24.52C12.4523 24.0838 12.0988 23.7302 11.6626 23.7302Z" fill="#101935"/>
</svg>
